<svg xmlns="http://www.w3.org/2000/svg" viewBox="0 0 250.26 71.59"><defs><style>.cls-1{fill:#fff;}.cls-2,.cls-3,.cls-4{fill:none;stroke:#fff;}.cls-2,.cls-4{stroke-linecap:round;stroke-linejoin:round;}.cls-2{stroke-width:2px;}.cls-3{stroke-width:2.42px;}.cls-4{stroke-width:3px;}</style></defs><g id="レイヤー_2" data-name="レイヤー 2"><g id="レイヤー_1-2" data-name="レイヤー 1"><path class="cls-1" d="M26.11,17.67a1.61,1.61,0,0,1,1.69,1.07L30.43,31.8,33,18.74a1.78,1.78,0,0,1,1.69-1.07,1.62,1.62,0,0,1,1.08.38,1.23,1.23,0,0,1,.38,1l2.12,13.44c0,.57-.25.85-.77.85s-.76-.28-.76-.85L34.6,18.67,31.73,32.42a1.35,1.35,0,0,1-2.61,0L26.18,18.67,24.13,32.49c0,.57-.26.85-.77.85s-.77-.28-.77-.85l2.06-13.44a1.34,1.34,0,0,1,.38-1A1.44,1.44,0,0,1,26.11,17.67Z"/><path class="cls-1" d="M55.93,19.74a7.82,7.82,0,0,1,2.31,5.76,7.89,7.89,0,0,1-2.31,5.84,7.34,7.34,0,0,1-5.45,2.08A7.36,7.36,0,0,1,45,31.34a7.92,7.92,0,0,1-2.3-5.84A7.85,7.85,0,0,1,45,19.74a7.4,7.4,0,0,1,5.46-2.07A7.37,7.37,0,0,1,55.93,19.74Zm-9.76.85a6.66,6.66,0,0,0-1.76,4.91,6.8,6.8,0,0,0,1.76,5,6.33,6.33,0,0,0,8.61,0,6.77,6.77,0,0,0,1.77-5,6.63,6.63,0,0,0-1.77-4.91,6.33,6.33,0,0,0-8.61,0Z"/><path class="cls-1" d="M55.92,40.86a7.82,7.82,0,0,1,2.31,5.76,7.89,7.89,0,0,1-2.31,5.84,7.34,7.34,0,0,1-5.45,2.08A7.35,7.35,0,0,1,45,52.46a7.88,7.88,0,0,1-2.3-5.84A7.81,7.81,0,0,1,45,40.86a7.38,7.38,0,0,1,5.46-2.07A7.37,7.37,0,0,1,55.92,40.86Zm-9.76.85a6.62,6.62,0,0,0-1.76,4.91,6.75,6.75,0,0,0,1.76,5,6.33,6.33,0,0,0,8.61,0,6.75,6.75,0,0,0,1.77-5,6.63,6.63,0,0,0-1.77-4.91,6.33,6.33,0,0,0-8.61,0Z"/><path class="cls-1" d="M25.44,39.27c0-.6.25-.9.74-.9s.73.3.73.9V48l9.93-9.73a.64.64,0,0,1,1,.09.86.86,0,0,1-.15,1.14L32,45.15l7,8.57A.91.91,0,0,1,38.9,55c-.4.27-.76.19-1.11-.24L31,46.13l-4.05,3.92v4.16c0,.6-.24.9-.73.9s-.74-.3-.74-.9Z"/><line class="cls-2" x1="16.13" y1="7.72" x2="16.13" y2="20.52"/><line class="cls-2" x1="16.13" y1="26.43" x2="16.13" y2="54.31"/><circle class="cls-3" cx="35.79" cy="35.79" r="34.58"/><path class="cls-1" d="M111.07,20.37a3.15,3.15,0,0,1,3.33,2.12l5.19,25.77,5.06-25.77A3.5,3.5,0,0,1,128,20.37a3.26,3.26,0,0,1,2.13.75,2.41,2.41,0,0,1,.75,2l4.19,26.53c0,1.11-.5,1.67-1.51,1.67S132,50.73,132,49.62l-4.19-27.28-5.66,27.13a2.67,2.67,0,0,1-5.15,0l-5.8-27.13-4.06,27.28c0,1.11-.5,1.67-1.51,1.67s-1.52-.56-1.52-1.67l4.06-26.53a2.67,2.67,0,0,1,.76-2A2.87,2.87,0,0,1,111.07,20.37Z"/><path class="cls-1" d="M169.91,24.46a15.43,15.43,0,0,1,4.55,11.37,15.65,15.65,0,0,1-4.55,11.52,16.2,16.2,0,0,1-21.52,0,15.65,15.65,0,0,1-4.55-11.52,15.43,15.43,0,0,1,4.55-11.37,16.2,16.2,0,0,1,21.52,0Zm-19.25,1.67q-3.48,3.48-3.48,9.7t3.48,9.85a12.49,12.49,0,0,0,17,0q3.48-3.49,3.48-9.85t-3.48-9.7a12.46,12.46,0,0,0-17,0Z"/><path class="cls-1" d="M245.71,24.5a15.43,15.43,0,0,1,4.55,11.37,15.61,15.61,0,0,1-4.55,11.52,16.2,16.2,0,0,1-21.52,0,15.61,15.61,0,0,1-4.55-11.52,15.43,15.43,0,0,1,4.55-11.37,16.2,16.2,0,0,1,21.52,0Zm-19.25,1.67Q223,29.65,223,35.87t3.48,9.85a12.49,12.49,0,0,0,17,0q3.48-3.48,3.48-9.85,0-6.21-3.48-9.7a12.46,12.46,0,0,0-17,0Z"/><path class="cls-1" d="M185.58,21.35c0-1.18.48-1.77,1.45-1.77s1.45.59,1.45,1.77V38.6l19.58-19.19a1.25,1.25,0,0,1,2,.17,1.67,1.67,0,0,1-.29,2.25L198.49,33l13.78,16.92a1.77,1.77,0,0,1-.15,2.42c-.77.54-1.5.38-2.17-.48L196.46,34.89l-8,7.73v8.22c0,1.18-.48,1.78-1.45,1.78s-1.45-.6-1.45-1.78Z"/><line class="cls-4" x1="91.38" y1="22.15" x2="91.38" y2="27.8"/><line class="cls-4" x1="91.38" y1="34.07" x2="91.38" y2="49.62"/></g></g></svg>