<svg xmlns="http://www.w3.org/2000/svg" viewBox="0 0 213.18 213.18"><defs><style>.cls-1{fill:#231815;}.cls-2,.cls-3{fill:#fff;}.cls-2,.cls-4,.cls-5{stroke:#fff;}.cls-2{stroke-width:0.4px;}.cls-4,.cls-5{fill:none;}.cls-4{stroke-linecap:round;stroke-linejoin:round;stroke-width:2.55px;}.cls-5{stroke-width:2.42px;}</style></defs><g id="レイヤー_2" data-name="レイヤー 2"><g id="レイヤー_1-2" data-name="レイヤー 1"><circle class="cls-1" cx="106.59" cy="106.59" r="106.59"/><path class="cls-2" d="M51.57,157.38a51.61,51.61,0,0,1-2.86,6.34,12.35,12.35,0,0,1-2.61,3.41,3.22,3.22,0,0,1-2,.84,1.32,1.32,0,0,1-1.19-.69,2.22,2.22,0,0,1-.33-1.19,6.92,6.92,0,0,1,2.2-4.78,1.11,1.11,0,0,1,.58-.37.28.28,0,0,1,.22.13.26.26,0,0,1,.07.19,2.35,2.35,0,0,1-.47.74,6.45,6.45,0,0,0-1.58,3.77,1.75,1.75,0,0,0,.22.91.78.78,0,0,0,.71.43q.9,0,2-1.59a35.67,35.67,0,0,0,2.87-5.32c.48-1.07.85-1.95,1.11-2.68a15.45,15.45,0,0,0-2.31.58,1.25,1.25,0,0,1-.45.12.41.41,0,0,1-.33-.18.45.45,0,0,1-.08-.26c0-.25.16-.43.49-.55a12.84,12.84,0,0,1,4.51-.78,2.64,2.64,0,0,1,1,.12.4.4,0,0,1,.26.37c0,.31-.2.46-.61.46a4.21,4.21,0,0,1-.46,0h-.94Z"/><path class="cls-3" d="M75.06,162.38a1,1,0,0,1,0,.2,1.44,1.44,0,0,1-.08.25,2.33,2.33,0,0,1-.11.28,1.59,1.59,0,0,1-.14.26c-.1.15-.23.32-.39.52s-.33.4-.52.61-.39.42-.61.63-.43.4-.63.57l-.58.46c-.22.17-.45.32-.69.47a5.72,5.72,0,0,1-.75.36,2.13,2.13,0,0,1-.71.14,1.55,1.55,0,0,1-.55-.09,1,1,0,0,1-.45-.32,2,2,0,0,1-.36-.66,6.59,6.59,0,0,1-.27-1.07c0-.18-.06-.38-.09-.59s0-.42-.08-.63,0-.4-.07-.6a4.79,4.79,0,0,0-.08-.5,1.45,1.45,0,0,0-.11-.35c0-.09-.08-.13-.12-.13s-.18.06-.32.19a4.89,4.89,0,0,0-.47.54c-.18.24-.38.53-.6.86s-.44.71-.68,1.13a17.45,17.45,0,0,1-1.18,1.89c-.32.43-.62.65-.88.65a.78.78,0,0,1-.8-.56,7.34,7.34,0,0,1-.24-1.91,11.54,11.54,0,0,0-.18-2c-.11-.47-.25-.71-.41-.71s-.26.1-.46.29a5.66,5.66,0,0,0-.67.77c-.25.33-.52.71-.82,1.16s-.59.93-.88,1.45l-.28.48c-.1.18-.2.36-.31.54l-.31.51a3.4,3.4,0,0,1-.27.4.71.71,0,0,1-.6.36.83.83,0,0,1-.86-.67c0-.11-.07-.21-.09-.28a1.55,1.55,0,0,1,0-.21,2,2,0,0,1,0-.24v-.34c0-.23,0-.44,0-.64s0-.38.06-.58,0-.4.08-.63.07-.48.11-.79,0-.51.08-.79,0-.56.06-.82,0-.52.06-.75a4,4,0,0,1,.08-.53.89.89,0,0,1,.12-.24,2.75,2.75,0,0,1,.22-.26,1.37,1.37,0,0,1,.27-.22.45.45,0,0,1,.24-.09.56.56,0,0,1,.3.08.82.82,0,0,1,.19.22,1,1,0,0,1,.1.32,2.56,2.56,0,0,1,0,.39,3.66,3.66,0,0,1,0,.52c0,.2-.06.43-.1.67s-.08.49-.13.75-.1.51-.14.74-.09.46-.13.66-.06.36-.08.49c0,.31-.09.57-.1.75s0,.34,0,.45a2.87,2.87,0,0,0,.28-.33c.12-.15.25-.33.38-.53s.29-.42.44-.66.31-.49.46-.75l.37-.6.42-.68c.15-.23.3-.44.44-.64a4.14,4.14,0,0,1,.4-.51,2.68,2.68,0,0,1,.75-.63,1.59,1.59,0,0,1,.81-.22A1,1,0,0,1,63,161a1.66,1.66,0,0,1,.41.85,3.86,3.86,0,0,1,.09.56c0,.21,0,.43,0,.66s0,.46.05.69,0,.45,0,.65a2.72,2.72,0,0,0,.07.5,2.06,2.06,0,0,0,.1.32.64.64,0,0,0,.1.16.08.08,0,0,0,.06,0c.11,0,.3-.23.56-.68l.44-.77.53-.93c.2-.34.41-.66.63-1s.45-.59.66-.83a4.4,4.4,0,0,1,.61-.57.9.9,0,0,1,.49-.21l.27,0a1.12,1.12,0,0,1,.26.08.71.71,0,0,1,.23.12.45.45,0,0,1,.15.16,1.5,1.5,0,0,1,.19.47,3.49,3.49,0,0,1,.08.6c0,.24,0,.49,0,.77s0,.59.07.92a5.27,5.27,0,0,0,.38,1.62.8.8,0,0,0,.73.53,1.25,1.25,0,0,0,.46-.12,5.05,5.05,0,0,0,.59-.32c.2-.13.41-.27.63-.44a7.3,7.3,0,0,0,.59-.49c.19-.16.36-.32.53-.49l.52-.5c.17-.17.35-.34.53-.53l.58-.58a.29.29,0,0,1,.19-.11C75,162.15,75.06,162.23,75.06,162.38Z"/><path class="cls-3" d="M85.94,161.16a.65.65,0,0,1-.07.29,1.24,1.24,0,0,1-.16.3l-.23.27a1.51,1.51,0,0,1-.26.2,3.1,3.1,0,0,1-.86.35,5.35,5.35,0,0,1-1.37.15,5.11,5.11,0,0,1-1.33-.17,4.35,4.35,0,0,1-1.28-.55,1.56,1.56,0,0,1,.26.58,3.12,3.12,0,0,1,0,.65,3.51,3.51,0,0,1-.34,1.45,6.58,6.58,0,0,1-.87,1.44,5.94,5.94,0,0,1-1.14,1.11,4.42,4.42,0,0,1-.73.44,5.69,5.69,0,0,1-.85.3,6.65,6.65,0,0,1-.91.17,7.73,7.73,0,0,1-1,.06,1.13,1.13,0,0,1-.66-.22,2.8,2.8,0,0,1-.57-.52,2.7,2.7,0,0,1-.4-.67,1.64,1.64,0,0,1-.15-.64,4.93,4.93,0,0,1,.18-1.34,7.13,7.13,0,0,1,.51-1.25,9.07,9.07,0,0,1,.73-1.17c.27-.38.57-.77.88-1.15a5.67,5.67,0,0,1,.59-.62,5,5,0,0,1,.69-.55,4.48,4.48,0,0,1,.74-.4,1.89,1.89,0,0,1,.71-.15,1.32,1.32,0,0,1,.47.08,1.45,1.45,0,0,1,.38.22,3.05,3.05,0,0,1,.36.36c.12.15.27.31.43.49a1.7,1.7,0,0,0,.43.22,8.45,8.45,0,0,0,.83.3c.32.09.65.18,1,.25a5,5,0,0,0,1,.11c.29,0,.55,0,.8,0s.47-.06.7-.1a5.76,5.76,0,0,0,.68-.19c.22-.08.47-.18.72-.3A.7.7,0,0,1,85.94,161.16Zm-6.46,2.07a2.71,2.71,0,0,0,0-.55,2.65,2.65,0,0,0-.15-.57,1.13,1.13,0,0,0-.29-.45.48.48,0,0,0-.43-.14,2.89,2.89,0,0,1-.66-.33.84.84,0,0,0-.4-.17.49.49,0,0,0-.22.06,2,2,0,0,0-.25.18,2.13,2.13,0,0,0-.26.26l-.27.32c-.17.23-.33.43-.48.61s-.28.37-.41.55-.26.37-.38.57-.24.42-.36.67a2.61,2.61,0,0,0-.14.37c0,.15-.07.3-.1.45s-.05.3-.07.46,0,.29,0,.41a.72.72,0,0,0,.08.27,1.49,1.49,0,0,0,.2.31,1.2,1.2,0,0,0,.29.26.54.54,0,0,0,.31.1,5.28,5.28,0,0,0,.75,0,2.59,2.59,0,0,0,.58-.14,2.41,2.41,0,0,0,.53-.27,7.13,7.13,0,0,0,.62-.45,3.17,3.17,0,0,0,.34-.3l.33-.37a4,4,0,0,0,.32-.4c.09-.13.19-.27.27-.4a1.06,1.06,0,0,0,.15-.32,2.62,2.62,0,0,0,.09-.38,2.54,2.54,0,0,0,0-.34A2.3,2.3,0,0,0,79.48,163.23Z"/><path class="cls-3" d="M97.44,165.09c-.27.25-.58.5-.93.77a8.68,8.68,0,0,1-1.12.74,7.4,7.4,0,0,1-1.25.55,4.41,4.41,0,0,1-1.34.21,2,2,0,0,1-1.07-.26,1.94,1.94,0,0,1-.73-.79,4.48,4.48,0,0,1-.42-1.35,13.17,13.17,0,0,1-.13-1.92c-.14.22-.29.44-.45.67s-.33.46-.5.67-.32.4-.47.57l-.39.42a12.71,12.71,0,0,1-2.26,1.85,3.89,3.89,0,0,1-2,.65,1.29,1.29,0,0,1-.53-.1,1.36,1.36,0,0,1-.39-.27,1.08,1.08,0,0,1-.32-.76,5.14,5.14,0,0,1,.21-1.42,9.46,9.46,0,0,1,.55-1.42,14.63,14.63,0,0,1,.75-1.35c.28-.42.56-.81.83-1.16a12.27,12.27,0,0,1,.81-.93,7.78,7.78,0,0,1,.8-.75,4,4,0,0,1,.75-.49,1.45,1.45,0,0,1,.63-.18.85.85,0,0,1,.33.07,3.07,3.07,0,0,1,.69.37l.2.15.22.27a.52.52,0,0,1,.12.33,1.14,1.14,0,0,1,0,.26.44.44,0,0,1-.15.25l-.08.09a.26.26,0,0,1-.09.09.52.52,0,0,1-.15.07.78.78,0,0,1-.24,0,.36.36,0,0,1-.27-.1,1.1,1.1,0,0,1-.2-.23,1.74,1.74,0,0,1-.15-.26.78.78,0,0,0-.13-.19,1.23,1.23,0,0,0-.64.22,3.89,3.89,0,0,0-.68.58,7.52,7.52,0,0,0-.68.84c-.22.31-.43.64-.63,1s-.39.67-.56,1-.32.64-.44.92a7.14,7.14,0,0,0-.3.73,1.47,1.47,0,0,0-.1.42.53.53,0,0,0,.16.39.56.56,0,0,0,.43.17,1.47,1.47,0,0,0,.54-.12,3.22,3.22,0,0,0,.59-.29,5.21,5.21,0,0,0,.55-.36,5.12,5.12,0,0,0,.45-.35c.28-.24.58-.51.91-.82s.63-.65.93-1a8.85,8.85,0,0,0,.8-1.08,4.32,4.32,0,0,0,.53-1.11c.07-.23.14-.49.2-.79s.11-.63.17-1l.15-1.08c0-.38.08-.75.11-1.11s.07-.71.09-1,.05-.64.08-.92c0-.73.37-1.09,1-1.09a.36.36,0,0,1,.34.25,1.73,1.73,0,0,1,.12.72,3.74,3.74,0,0,1,0,.4c0,.21-.07.47-.12.79s-.11.68-.18,1.08l-.18,1.23c-.07.42-.13.84-.19,1.26s-.13.81-.18,1.16-.09.67-.12.94a5.52,5.52,0,0,0,0,.59v.58c0,.22,0,.46,0,.7a4.16,4.16,0,0,0,.13.72,2.21,2.21,0,0,0,.26.65,1.38,1.38,0,0,0,.44.46,1.16,1.16,0,0,0,.66.18,4.06,4.06,0,0,0,1-.13,5.42,5.42,0,0,0,1-.36,7.58,7.58,0,0,0,1-.57q.54-.33,1.11-.75s0,0,0-.05l.1-.09.09-.09.05,0s.08,0,.12.13a1,1,0,0,1,0,.33,1.26,1.26,0,0,1,0,.33A.74.74,0,0,1,97.44,165.09Z"/><path class="cls-3" d="M107.73,160.5a2.16,2.16,0,0,1-.17.64,10.83,10.83,0,0,1-.48,1c-.2.37-.43.76-.7,1.17a12.72,12.72,0,0,1-.89,1.16,11.45,11.45,0,0,1-1.08,1.14,8.28,8.28,0,0,1-1.31,1,7.26,7.26,0,0,1-1.46.7,5,5,0,0,1-1.58.25,3.2,3.2,0,0,1-1.41-.28,2.72,2.72,0,0,1-1-.73,3.1,3.1,0,0,1-.53-1A4.32,4.32,0,0,1,97,164.3a6,6,0,0,1,.11-1.11,5.74,5.74,0,0,1,.29-1.08,6.78,6.78,0,0,1,.47-1,6.07,6.07,0,0,1,.59-.9,6.2,6.2,0,0,1,.51-.57,4.57,4.57,0,0,1,.67-.55,4.19,4.19,0,0,1,.82-.41,2.39,2.39,0,0,1,.92-.17,1.48,1.48,0,0,1,.61.12,1.4,1.4,0,0,1,.71.78,1.52,1.52,0,0,1,.09.51,2.55,2.55,0,0,1-.19,1,3.61,3.61,0,0,1-.62,1,8.45,8.45,0,0,1-1.13,1.06,20.41,20.41,0,0,1-1.71,1.24l-.17.11-.22.15-.2.16a.28.28,0,0,0-.08.15,1.92,1.92,0,0,0,.08.5,1.19,1.19,0,0,0,.28.5,1.63,1.63,0,0,0,.56.39,2.32,2.32,0,0,0,.9.15,3.32,3.32,0,0,0,.81-.1,5.46,5.46,0,0,0,.84-.27,5.85,5.85,0,0,0,.82-.43,5.91,5.91,0,0,0,.77-.54,9,9,0,0,0,1-.91,13.21,13.21,0,0,0,1-1.11,16.53,16.53,0,0,0,1.66-2.6.63.63,0,0,1,.21-.26.5.5,0,0,1,.19-.07.18.18,0,0,1,.16.14A1.2,1.2,0,0,1,107.73,160.5Zm-6.22-.28a.28.28,0,0,0-.06-.18.65.65,0,0,0-.13-.16l-.18-.12a.56.56,0,0,0-.15,0,1.4,1.4,0,0,0-.75.29,3.2,3.2,0,0,0-.78.78,5.23,5.23,0,0,0-.67,1.2,5.64,5.64,0,0,0-.4,1.53c.08-.05.22-.15.41-.3l.61-.5c.23-.18.44-.37.66-.56s.39-.36.52-.49.3-.32.42-.45a2.72,2.72,0,0,0,.29-.37,1.91,1.91,0,0,0,.16-.32A1.18,1.18,0,0,0,101.51,160.22Z"/><path class="cls-3" d="M114.56,163.16a3,3,0,0,1-.5,1.27c-.06.11-.15.24-.26.4s-.24.31-.38.47l-.43.5c-.15.17-.29.33-.44.47a7.46,7.46,0,0,1-.72.64,5.75,5.75,0,0,1-.83.56,4.5,4.5,0,0,1-.9.4,2.69,2.69,0,0,1-.91.16,2.89,2.89,0,0,1-1.11-.22,2.45,2.45,0,0,1-.91-.66,3.46,3.46,0,0,1-.6-1.13,5.11,5.11,0,0,1-.22-1.6q0-.64.06-1.32t.15-1.38c.07-.46.14-.92.22-1.37s.15-.89.23-1.31.1-.52.14-.71.07-.35.1-.51,0-.31.07-.47.06-.35.09-.59,0-.3.07-.43,0-.22,0-.3a2.64,2.64,0,0,1,.12-.4,1.3,1.3,0,0,1,.21-.34.8.8,0,0,1,.29-.23.74.74,0,0,1,.36-.09.64.64,0,0,1,.61.39c0,.18-.07.35-.1.51a4.15,4.15,0,0,0-.1.53c-.15.72-.27,1.31-.36,1.76s-.16.77-.2,1c-.07.36-.14.75-.22,1.18s-.15.84-.21,1.28-.12.87-.16,1.3-.06.82-.06,1.19a6.08,6.08,0,0,0,.09,1.09,2.47,2.47,0,0,0,.31.83,1.55,1.55,0,0,0,.54.54,1.67,1.67,0,0,0,.81.19,2.45,2.45,0,0,0,1-.23,5.06,5.06,0,0,0,1-.59,7.12,7.12,0,0,0,.88-.78c.28-.28.53-.56.76-.82l.48-.57.35-.4a3.25,3.25,0,0,1,.26-.27.4.4,0,0,1,.26-.14C114.51,162.91,114.56,163,114.56,163.16Z"/><path class="cls-3" d="M118.77,166.52a2.51,2.51,0,0,1-.15.86,3.73,3.73,0,0,1-.42.79,4.43,4.43,0,0,1-.61.69,4.65,4.65,0,0,1-.71.55,3.47,3.47,0,0,1-.73.35,2.28,2.28,0,0,1-.69.12.69.69,0,0,1-.57-.19.88.88,0,0,1-.14-.53.77.77,0,0,1,.13-.49,1,1,0,0,1,.34-.29l.1,0,.15,0h.3l.17,0,.24-.07.27-.12.26-.17a1.59,1.59,0,0,0,.49-.62,1.66,1.66,0,0,0,.14-.61,1,1,0,0,0-.22-.63,3.17,3.17,0,0,0-.54-.57c-.22-.19-.46-.38-.71-.56a8.32,8.32,0,0,1-.71-.6,3.06,3.06,0,0,1-.54-.67,1.45,1.45,0,0,1-.22-.79,1.86,1.86,0,0,1,.06-.45,2.9,2.9,0,0,1,.14-.48,3.1,3.1,0,0,1,.21-.45,3,3,0,0,1,.25-.4c.14-.2.29-.39.45-.58a6.07,6.07,0,0,1,.5-.51,2.81,2.81,0,0,1,.49-.35.94.94,0,0,1,.45-.14c.39,0,.59.23.59.7a1.15,1.15,0,0,1-.2.56,3.17,3.17,0,0,1-.46.58l-.72.68a6.35,6.35,0,0,0-.58.58,3.69,3.69,0,0,0,.43.53c.15.16.32.32.49.47l.52.44c.17.14.35.29.52.45l.46.45a3.42,3.42,0,0,1,.39.48,2.12,2.12,0,0,1,.28.51A1.54,1.54,0,0,1,118.77,166.52Z"/><path class="cls-3" d="M122.43,166.58a3.87,3.87,0,0,1-.08.57c0,.13-.21.33-.54.61a1.56,1.56,0,0,1-.71.4.92.92,0,0,1-.37-.06.41.41,0,0,1-.22-.19.86.86,0,0,1-.1-.32c0-.14,0-.3,0-.49a5.59,5.59,0,0,1,0-.7q0-.39,1.23-.39h.19a.7.7,0,0,1,.51.3A.38.38,0,0,1,122.43,166.58Z"/><path class="cls-3" d="M134.19,160.79a.65.65,0,0,1-.17.48,2,2,0,0,1-.4.3,3.42,3.42,0,0,1-.64.23c-.23.07-.47.14-.71.19s-.5.1-.74.14l-.71.09-.77.07-.79.07-.7.09a3,3,0,0,0-.52.13q-.18.79-.39,1.5c-.13.48-.25.95-.34,1.42l-.09.49c0,.22-.07.46-.11.69s-.06.47-.09.68,0,.36,0,.45a1,1,0,0,0,.11.53,1.22,1.22,0,0,0,.25.29l.25.2a.37.37,0,0,1,.11.29.33.33,0,0,1-.12.23,1.55,1.55,0,0,1-.28.2,1.81,1.81,0,0,1-.35.13,1.39,1.39,0,0,1-.32,0,.77.77,0,0,1-.45-.14,1.18,1.18,0,0,1-.34-.36,1.75,1.75,0,0,1-.21-.5,2,2,0,0,1-.08-.59,5.12,5.12,0,0,1,.07-.85c0-.3.1-.61.17-.93s.14-.64.22-1,.15-.66.22-1l.09-.43q0-.22.09-.42c0-.12,0-.23.06-.32l0-.15a.27.27,0,0,0-.1-.22.48.48,0,0,0-.24-.07l-.31,0-.44,0-.43,0a2,2,0,0,1-.3,0,2.66,2.66,0,0,1-.53,0,.7.7,0,0,1-.35-.14.56.56,0,0,1-.2-.29,1.56,1.56,0,0,1-.06-.48.21.21,0,0,1,.11-.19.66.66,0,0,1,.27-.1,1.87,1.87,0,0,1,.34,0h.32l.37,0,.53-.05.54,0,.37,0h.12a.43.43,0,0,0,.14,0,.4.4,0,0,0,.13-.13.92.92,0,0,0,.11-.26c0-.17.09-.38.14-.62s.12-.48.18-.74.12-.49.18-.72.1-.44.14-.6a4,4,0,0,0,.14-.52c0-.19.07-.37.1-.56s.07-.36.11-.53a2.46,2.46,0,0,1,.16-.48.63.63,0,0,1,.61-.44c.43,0,.64.23.64.7a3.12,3.12,0,0,1-.19,1c-.28.88-.48,1.6-.61,2.17a5.79,5.79,0,0,0-.2,1.14.28.28,0,0,0,.32.32h.73l.69,0,.74-.08.87-.09.66-.1.58-.12.48-.11.34-.07.19,0a.3.3,0,0,1,.16,0,.17.17,0,0,1,.1.07A.32.32,0,0,1,134.19,160.79Z"/><path class="cls-3" d="M143.09,160.77a1.12,1.12,0,0,1-.64.91,5.41,5.41,0,0,1-.64.35c-.24.1-.49.2-.75.29s-.51.16-.76.22a5.59,5.59,0,0,1-.69.12l-1,.05a3.29,3.29,0,0,0-.91.1.83.83,0,0,0-.22.48l0,.18c0,.06,0,.14,0,.24s0,.22,0,.36,0,.34,0,.56a2.42,2.42,0,0,1,0,.45,4.1,4.1,0,0,1-.1.48,3.66,3.66,0,0,1-.18.46,2,2,0,0,1-.23.38,3.52,3.52,0,0,1-.5.54,7,7,0,0,1-.65.52q-.36.25-.75.48a7.35,7.35,0,0,1-.8.39,5.2,5.2,0,0,1-.79.26,3.08,3.08,0,0,1-.72.09,2.13,2.13,0,0,1-1-.19,1.74,1.74,0,0,1-.6-.54,2.42,2.42,0,0,1-.31-.79,4.89,4.89,0,0,1-.09-1,4.15,4.15,0,0,1,.12-1,6.36,6.36,0,0,1,.32-1,10,10,0,0,1,.43-.94l.47-.93c.15-.25.29-.49.41-.71s.25-.44.37-.63a6.08,6.08,0,0,1,.39-.53,2.2,2.2,0,0,1,.5-.4,2.46,2.46,0,0,1,.66-.26,4.06,4.06,0,0,1,.91-.09,1.27,1.27,0,0,1,.41.06,1.09,1.09,0,0,1,.32.17,2.44,2.44,0,0,1,.29.27l.28.35.3.36.2.22a1,1,0,0,0,.43.21,2.8,2.8,0,0,0,.73.07q.63,0,1,0a6.83,6.83,0,0,0,.71-.07l.67-.13.6-.15.61-.17.67-.21a1.7,1.7,0,0,1,.41,0C143,160.65,143.09,160.69,143.09,160.77ZM136.21,163a2.05,2.05,0,0,0-.05-.51.69.69,0,0,0-.14-.27,1.94,1.94,0,0,0-.2-.21,1.42,1.42,0,0,1-.23-.33,1.75,1.75,0,0,0-.23-.35.43.43,0,0,0-.34-.12,1.61,1.61,0,0,0-1.16.61,5.67,5.67,0,0,0-.53.69,6.75,6.75,0,0,0-.46.85,8.51,8.51,0,0,0-.34.79,8.07,8.07,0,0,0-.29.87,7.16,7.16,0,0,0-.21.86,4,4,0,0,0-.09.81.82.82,0,0,0,.07.3.86.86,0,0,0,.21.26,1.29,1.29,0,0,0,.33.18,1.53,1.53,0,0,0,.46.07,1.29,1.29,0,0,0,.47-.12,4.46,4.46,0,0,0,.6-.27,6,6,0,0,0,.56-.35,3.41,3.41,0,0,0,.41-.33,5.6,5.6,0,0,0,.65-.81,2.93,2.93,0,0,0,.35-.74,4,4,0,0,0,.14-.82C136.2,163.72,136.21,163.37,136.21,163Z"/><path class="cls-3" d="M151.31,167.05a.64.64,0,0,1-.1.33.75.75,0,0,1-.26.24,1.46,1.46,0,0,1-.36.16,1.65,1.65,0,0,1-.38.05,3.87,3.87,0,0,1-1-.17,11.82,11.82,0,0,1-1.21-.43c-.42-.18-.84-.37-1.25-.58s-.81-.41-1.18-.6l-1-.51a6.17,6.17,0,0,0-.62-.3,2.4,2.4,0,0,0-.37.28,5.44,5.44,0,0,0-.41.42,3.22,3.22,0,0,0-.33.45,1.08,1.08,0,0,0-.17.35,2.12,2.12,0,0,1,0,.44,3.17,3.17,0,0,0,0,.41,2.26,2.26,0,0,1-.06.57.86.86,0,0,1-.17.36.58.58,0,0,1-.3.18,1.37,1.37,0,0,1-.43.05c-.21,0-.34-.05-.4-.15a1.14,1.14,0,0,1-.08-.49,6.87,6.87,0,0,1,.06-.78c0-.34.09-.72.15-1.15s.13-.91.21-1.41.16-1,.23-1.58.15-1.09.22-1.64.12-1.09.16-1.61c0-.15,0-.34,0-.57s0-.47,0-.73,0-.52,0-.79,0-.54.05-.78,0-.47.06-.67,0-.35.06-.46a.69.69,0,0,1,.11-.29,1,1,0,0,1,.23-.24,1.14,1.14,0,0,1,.3-.18.89.89,0,0,1,.31-.06.66.66,0,0,1,.3.07,1.07,1.07,0,0,1,.25.16.91.91,0,0,1,.18.21.37.37,0,0,1,.07.19,8,8,0,0,1-.08,1c-.06.39-.13.83-.21,1.33s-.19,1-.3,1.58-.21,1.16-.32,1.75-.2,1.21-.29,1.81-.16,1.19-.21,1.76a17.29,17.29,0,0,0,1.44-1.38c.43-.46.82-.91,1.18-1.34s.7-.85,1-1.23.58-.72.85-1a4.55,4.55,0,0,1,.76-.68,1.29,1.29,0,0,1,.72-.24.43.43,0,0,1,.24.06.79.79,0,0,1,.17.14.66.66,0,0,1,.09.19.55.55,0,0,1,0,.17.68.68,0,0,1-.17.34,5.5,5.5,0,0,1-.45.56l-.65.7-.75.77c-.25.26-.5.51-.76.75l-.69.67-.53.49-.27.26c.19.12.44.26.76.43l1.06.52,1.19.54c.41.19.8.35,1.16.5s.69.27,1,.36a3.69,3.69,0,0,0,.65.17,1,1,0,0,1,.39.1A.26.26,0,0,1,151.31,167.05Z"/><path class="cls-3" d="M160.5,160.68c0,.1,0,.21,0,.34s0,.28,0,.45,0,.33,0,.5,0,.35-.05.54,0,.34,0,.48,0,.26,0,.36a23.29,23.29,0,0,1-.25,2.43c-.13.84-.28,1.63-.47,2.38a10.11,10.11,0,0,1-1.34,3.21,2.75,2.75,0,0,1-2.43,1.35,5.64,5.64,0,0,1-2.06-.41A4.9,4.9,0,0,1,152,171.2a1.6,1.6,0,0,1-.42-.69,1.16,1.16,0,0,1,.13-.5c.09-.18.2-.26.31-.26a.2.2,0,0,1,.17.1,3.92,3.92,0,0,0,.56.66,4.32,4.32,0,0,0,3,1,1.6,1.6,0,0,0,1.27-.69,6.2,6.2,0,0,0,.49-.73,7.43,7.43,0,0,0,.37-.81,8.07,8.07,0,0,0,.29-.87q.13-.44.24-.9c.06-.28.1-.5.13-.67l.06-.34c0-.24,0-.47.06-.7a4.93,4.93,0,0,1,.07-.66c-.16.07-.49.26-1,.57l-.8.48-.65.38a10.18,10.18,0,0,1-1.28.64,3.36,3.36,0,0,1-1.2.3,1.42,1.42,0,0,1-1.25-.64,2.64,2.64,0,0,1-.44-1.5,7.65,7.65,0,0,1,.13-1.35c.05-.25.09-.48.14-.69s.1-.42.16-.61.13-.42.2-.68.18-.58.28-.92a3.46,3.46,0,0,1,.2-.5,1.52,1.52,0,0,1,.23-.35.85.85,0,0,1,.32-.21,1.16,1.16,0,0,1,.44-.07.44.44,0,0,1,.4.28,1.24,1.24,0,0,1,.13.56.64.64,0,0,1-.07.31,2.05,2.05,0,0,0-.12.2c-.06.08-.12.19-.2.31s-.15.24-.19.32a.78.78,0,0,0-.09.2q-.08.21-.12.36a2.39,2.39,0,0,1-.1.26c0,.07,0,.15-.07.24l-.11.34c-.07.24-.12.47-.16.67a4.68,4.68,0,0,0,0,.66,3.25,3.25,0,0,0,.13.84c.1.33.23.5.4.5a4.9,4.9,0,0,0,1.84-.44,7.57,7.57,0,0,0,2-1.16,2.88,2.88,0,0,0,1.05-1.44,1.65,1.65,0,0,0,0-.32c0-.13,0-.29,0-.46s0-.35,0-.53,0-.36,0-.53,0-.32,0-.46a1.29,1.29,0,0,1,.06-.3c.15-.53.39-.8.72-.8s.51.08.59.24A2.11,2.11,0,0,1,160.5,160.68Z"/><path class="cls-3" d="M170.27,162.63a4.28,4.28,0,0,1,0,.52,3.85,3.85,0,0,1-.08.49,3.1,3.1,0,0,1-.14.47c-.06.16-.12.32-.2.49a3.36,3.36,0,0,1-.44.64,9.28,9.28,0,0,1-.77.76,12.8,12.8,0,0,1-2.05,1.49,6.82,6.82,0,0,1-1.07.5,2.71,2.71,0,0,1-1,.19,2.46,2.46,0,0,1-1-.19,2.19,2.19,0,0,1-.71-.51,2,2,0,0,1-.43-.72,2.37,2.37,0,0,1-.14-.83,3.1,3.1,0,0,1,.07-.63,5.54,5.54,0,0,1,.18-.73,7.27,7.27,0,0,1,.27-.78c.1-.26.21-.52.32-.76s.24-.46.36-.67a4.43,4.43,0,0,1,.35-.53,5.63,5.63,0,0,1,.73-.74,5.86,5.86,0,0,1,2-1.1,4.42,4.42,0,0,1,1.21-.17,2,2,0,0,1,.91.23,2.65,2.65,0,0,1,.8.62,3,3,0,0,1,.57.89A2.81,2.81,0,0,1,170.27,162.63Zm-1.35.25a1.82,1.82,0,0,0-.49-1.34,1.9,1.9,0,0,0-1.4-.49,1.43,1.43,0,0,0-.64.17,3.76,3.76,0,0,0-.61.4,4.45,4.45,0,0,0-.54.52c-.16.18-.3.34-.41.49a4.28,4.28,0,0,0-.36.61,7.61,7.61,0,0,0-.38.81,8.21,8.21,0,0,0-.29.88,2.89,2.89,0,0,0-.12.76,1.1,1.1,0,0,0,.08.4,1.07,1.07,0,0,0,.22.37,1.1,1.1,0,0,0,.34.26.93.93,0,0,0,.44.11,2.11,2.11,0,0,0,.67-.16,4.66,4.66,0,0,0,.87-.43,7.48,7.48,0,0,0,.93-.65,7.25,7.25,0,0,0,.85-.81,3.88,3.88,0,0,0,.6-.93A2.14,2.14,0,0,0,168.92,162.88Z"/><path class="cls-3" d="M95.14,74.46a1.9,1.9,0,0,1,2,1.27l3.11,15.44,3-15.44a2.09,2.09,0,0,1,2-1.27,2,2,0,0,1,1.27.45,1.45,1.45,0,0,1,.45,1.18L109.51,92c0,.67-.3,1-.91,1s-.9-.33-.9-1l-2.51-16.35-3.4,16.26a1.6,1.6,0,0,1-3.09,0L95.23,75.64,92.8,92c0,.67-.31,1-.91,1S91,92.66,91,92l2.43-15.9a1.59,1.59,0,0,1,.46-1.18A1.71,1.71,0,0,1,95.14,74.46Z"/><path class="cls-3" d="M130.4,76.91a9.25,9.25,0,0,1,2.73,6.82,9.35,9.35,0,0,1-2.73,6.9,9.72,9.72,0,0,1-12.9,0,9.38,9.38,0,0,1-2.72-6.9,9.28,9.28,0,0,1,2.72-6.82,9.72,9.72,0,0,1,12.9,0Zm-11.53,1a7.85,7.85,0,0,0-2.09,5.82,8,8,0,0,0,2.09,5.9,7.46,7.46,0,0,0,10.17,0,8,8,0,0,0,2.09-5.9A7.89,7.89,0,0,0,129,77.91a7.46,7.46,0,0,0-10.17,0Z"/><path class="cls-3" d="M130.39,101.88a9.24,9.24,0,0,1,2.72,6.82,9.34,9.34,0,0,1-2.72,6.9,9.72,9.72,0,0,1-12.9,0,9.34,9.34,0,0,1-2.72-6.9,9.24,9.24,0,0,1,2.72-6.82,9.72,9.72,0,0,1,12.9,0Zm-11.54,1a7.89,7.89,0,0,0-2.09,5.82,8,8,0,0,0,2.09,5.9,7.48,7.48,0,0,0,10.18,0,8,8,0,0,0,2.09-5.9,7.89,7.89,0,0,0-2.09-5.82,7.5,7.5,0,0,0-10.18,0Z"/><path class="cls-3" d="M94.35,100c0-.71.29-1.07.87-1.07s.87.36.87,1.07v10.33l11.74-11.49a.74.74,0,0,1,1.21.09,1,1,0,0,1-.17,1.36L102.09,107l8.26,10.14a1.07,1.07,0,0,1-.09,1.45c-.46.32-.9.23-1.3-.29l-8.09-10.14-4.78,4.64v4.92c0,.71-.29,1.06-.87,1.06s-.87-.35-.87-1.06Z"/><line class="cls-4" x1="83.34" y1="62.7" x2="83.34" y2="77.83"/><line class="cls-4" x1="83.34" y1="84.82" x2="83.34" y2="117.79"/><circle class="cls-5" cx="106.59" cy="95.89" r="40.89"/></g></g></svg>